<svg width="207" height="207" viewBox="0 0 207 207" fill="none" xmlns="http://www.w3.org/2000/svg">
    <g clip-path="url(#clip0_3036_59358)">
        <rect width="207" height="207" rx="2" fill="#191A23"/>
        <g opacity="0.8">
            <path d="M-1.91185 269.013L80.5046 160.017L0.821012 272.312L-1.91185 269.013ZM-5.97144 225.722L73.3067 154.824L-3.76314 229.589L-5.97144 225.722Z" fill="#05060F"/>
            <path d="M-22.9789 236.993L77.4989 149.907L-20.8374 240.945L-22.9789 236.993ZM-15.6572 212.427L61.6817 157.935L-13.7995 216.592L-15.6572 212.427ZM-23.2431 205.112L68.3811 148.827L-21.5715 209.404L-23.2431 205.112Z" fill="#05060F"/>
            <path d="M-28.0995 203.823L65.2432 149.33L-26.5009 208.171L-28.0995 203.823Z" fill="#05060F"/>
            <path d="M-30.1454 202.488L67.7622 148.039L-28.5975 206.869L-30.1454 202.488Z" fill="#05060F"/>
            <path d="M-26.853 195.722L55.3024 152.775L-25.3765 200.132L-26.853 195.722ZM-30.5385 182.913L64.3585 143.694L-29.3281 187.419L-30.5385 182.913ZM-35.5354 159.46L69.467 134.547L-34.7845 164.087L-35.5354 159.46ZM-42.0458 151.204L68.9362 132.159L-41.4855 155.934L-42.0458 151.204ZM-31.9921 88.3726L51.9671 111.548L-32.703 93.0493L-31.9921 88.3726ZM-37.5176 77.6994L60.3833 111.17L-38.4103 82.3686L-37.5176 77.6994ZM-22.2211 70.6286L58.3157 105.779L-23.3435 75.2539L-22.2211 70.6286Z" fill="#05060F"/>
            <path d="M-25.075 66.0365L60.4563 104.875L-26.2592 70.5137L-25.075 66.0365Z" fill="#05060F"/>
            <path d="M-30.0654 59.0329L62.1726 104.469L-31.3393 63.5309L-30.0654 59.0329Z" fill="#05060F"/>
            <path d="M-38.5859 50.8403L75.0987 110.03L-39.9438 55.2821L-38.5859 50.8403ZM-15.5942 36.8176L68.7398 98.2151L-17.3677 41.0234L-15.5942 36.8176Z" fill="#05060F"/>
            <path d="M-26.591 27.9757L72.0233 101.598L-28.4052 32.1998L-26.591 27.9757ZM-14.8974 23.2036L68.778 95.5459L-16.9144 27.2869L-14.8974 23.2036ZM-0.381693 13.7243L59.9046 78.8932L-2.71965 17.5079L-0.381693 13.7243Z" fill="#05060F"/>
            <path d="M-4.8763 6.26102L66.8939 84.228L-7.21039 9.98969L-4.8763 6.26102Z" fill="#05060F"/>
            <path d="M-0.615107 13.7035L59.6715 78.3428L-2.95307 17.4567L-0.615107 13.7035Z" fill="#05060F"/>
            <path d="M-4.89041 6.28414L66.9073 84.2524L-7.22553 10.0128L-4.89041 6.28414ZM7.22032 8.15587L59.3416 71.9645L4.74806 11.7462L7.22032 8.15587Z" fill="#05060F"/>
            <path d="M-4.19652 -6.39284L75.724 89.4038L-6.72162 -2.8624L-4.19652 -6.39284ZM-2.57181 -16.9304L77.2598 88.9121L-5.2178 -13.5063L-2.57181 -16.9304ZM6.52947 -13.5259L74.4127 82.7063L3.80434 -10.2377L6.52947 -13.5259ZM5.79225 -24.4768L78.9154 86.1438L3.00758 -21.2865L5.79225 -24.4768Z" fill="#05060F"/>
            <path d="M10.4218 -23.4088L77.4491 82.4924L7.55572 -20.3261L10.4218 -23.4088ZM23.717 -23.8797L76.5827 73.6724L20.6836 -21.0612L23.717 -23.8797ZM28.1576 -30.6984L81.0246 75.9869L25.0131 -28.0671L28.1576 -30.6984ZM27.06 -44.9535L86.8994 86.0815L23.8745 -42.4493L27.06 -44.9535Z" fill="#05060F"/>
            <path d="M35.0651 -34.8286L81.6761 71.7563L31.8487 -32.3893L35.0651 -34.8286ZM48.5449 -14.0791L72.4603 47.1876L45.2573 -11.7523L48.5449 -14.0791Z" fill="#05060F"/>
            <path d="M46.5564 -28.3292L78.7622 57.8315L43.2554 -26.1236L46.5564 -28.3292Z" fill="#05060F"/>
            <path d="M44.0158 -45.2289L88.8376 80.7344L40.6705 -43.1334L44.0158 -45.2289Z" fill="#05060F"/>
            <path d="M55.8473 -21.0392L78.3095 49.4229L52.502 -19.0441L55.8473 -21.0392Z" fill="#05060F"/>
            <path d="M50.5044 -40.0128L84.628 63.6167L47.084 -38.0592L50.5044 -40.0128ZM62.5066 -17.164L80.6483 46.3498L59.0267 -15.3485L62.5066 -17.164Z" fill="#05060F"/>
            <path d="M59.6522 -35.2797L87.0633 63.0614L56.1968 -33.5525L59.6522 -35.2797ZM62.2516 -48.9685L93.2118 77.0474L58.7139 -47.4259L62.2516 -48.9685ZM68.3359 -53.0702L94.2218 72.6557L64.7467 -51.7479L68.3359 -53.0702Z" fill="#05060F"/>
            <path d="M73.4572 -46.7395L93.9515 65.8176L69.817 -45.5567L73.4572 -46.7395ZM92.175 -34.9261L101.388 77.5796L88.4747 -34.3231L92.175 -34.9261ZM101.501 -24.878L102.457 43.2844L97.9253 -24.6174L101.501 -24.878ZM105.39 -22.0253L104.591 46.0465L101.565 -21.9261L105.39 -22.0253ZM109.721 -59.4008L106.531 71.6576L105.896 -59.4582L109.721 -59.4008Z" fill="#05060F"/>
            <path d="M111.502 -50.4292L107.271 62.479L107.687 -50.5515L111.502 -50.4292ZM118.089 -50.0781L109.698 59.2239L114.298 -50.4414L118.089 -50.0781Z" fill="#05060F"/>
            <path d="M121.279 -65.5624L109.454 72.5898L117.489 -66.0004L121.279 -65.5624ZM124.732 -46.0874L111.916 64.1723L121.026 -46.6992L124.732 -46.0874Z" fill="#05060F"/>
            <path d="M126.673 -47.4665L113.025 58.5239L122.976 -48.1417L126.673 -47.4665ZM137.598 -44.747L117.417 61.0391L133.982 -45.7906L137.598 -44.747Z" fill="#05060F"/>
            <path d="M141.176 -50.1282L115.556 74.1689L137.527 -51.2696L141.176 -50.1282ZM149.248 -37.9063L122.363 60.7983L145.702 -39.3926L149.248 -37.9063Z" fill="#05060F"/>
            <path d="M149.638 -28.4796L122.766 62.797L146.118 -30.0662L149.638 -28.4796ZM153.764 -22.8095L122.867 71.4824L150.325 -24.5834L153.764 -22.8095ZM162.963 -33.7165L127.59 64.5071L159.592 -35.6738L162.963 -33.7165ZM167.879 -35.8022L126.973 68.0327L164.469 -37.8624L167.879 -35.8022ZM166.076 -9.90983L139.172 47.9572L162.813 -12.2194L166.076 -9.90983Z" fill="#05060F"/>
            <path d="M174.389 -20.1943L134.254 62.6844L171.158 -22.6164L174.389 -20.1943ZM184.028 -28.6803L130.57 75.1792L180.887 -31.2578L184.028 -28.6803ZM180.666 -10.929L143.541 54.5054L177.549 -13.6361L180.666 -10.929Z" fill="#05060F"/>
            <path d="M180.632 -6.3767L145.103 54.5853L177.606 -9.18547L180.632 -6.3767ZM194.831 -21.6496L135.368 75.4058L191.827 -24.5489L194.831 -21.6496Z" fill="#05060F"/>
            <path d="M193.339 -14.8704L143.97 62.1094L190.389 -17.8015L193.339 -14.8704Z" fill="#05060F"/>
            <path d="M191.073 -5.03983L153.693 49.9243L188.171 -8.10047L191.073 -5.03983Z" fill="#05060F"/>
            <path d="M203.42 -17.242L133.5 83.6118L200.59 -20.3492L203.42 -17.242ZM200.751 -4.75946L153.166 57.4356L198.028 -8.06968L200.751 -4.75946Z" fill="#05060F"/>
            <path d="M205.928 -7.42895L130.78 91.3599L203.185 -10.7075L205.928 -7.42895ZM211.733 -0.185779L144.36 78.2326L209.148 -3.65997L211.733 -0.185779Z" fill="#05060F"/>
            <path d="M204.84 13.7096L167.742 53.1255L202.297 10.2061L204.84 13.7096Z" fill="#05060F"/>
            <path d="M206.349 15.8845L131.081 96.2432L203.878 12.2746L206.349 15.8845ZM219.429 10.1924L146.694 82.1202L217.09 6.47614L219.429 10.1924Z" fill="#05060F"/>
            <path d="M207.664 26.1959L162.214 68.8977L205.382 22.4185L207.664 26.1959ZM215.524 34.397L159.726 79.4756L213.455 30.4078L215.524 34.397Z" fill="#05060F"/>
            <path d="M227.458 27.0206L145.876 92.4634L225.416 22.9947L227.458 27.0206ZM228.361 34.49L146.756 94.0317L226.456 30.3455L228.361 34.49Z" fill="#05060F"/>
            <path d="M223.824 42.6834L159.132 86.2622L221.995 38.5314L223.824 42.6834Z" fill="#05060F"/>
            <path d="M220.658 48.461L138.052 103.457L218.881 44.2174L220.658 48.461ZM246.407 41.1237L137.409 106.268L244.798 36.7675L246.407 41.1237Z" fill="#05060F"/>
            <path d="M251.72 40.4802L138.616 105.611L250.15 36.0972L251.72 40.4802ZM253.647 53.3346L141.234 107.665L252.3 48.8218L253.647 53.3346Z" fill="#05060F"/>
            <path d="M253.941 56.3625L137.113 109.944L252.628 51.8693L253.941 56.3625Z" fill="#05060F"/>
            <path d="M234.649 70.0793L158.823 101.316L233.413 65.5702L234.649 70.0793ZM243.072 76.0037L145.162 109.636L242.031 71.4432L243.072 76.0037ZM248.953 89.7525L145.452 114.351L248.204 85.0672L248.953 89.7525Z" fill="#05060F"/>
            <path d="M254.323 93.214L140.094 117.176L253.671 88.415L254.323 93.214ZM251.257 111.874L153.448 120L250.944 107.07L251.257 111.874ZM259.834 116.171L142.298 122.578L259.617 111.466L259.834 116.171Z" fill="#05060F"/>
            <path d="M254.462 119.409L145.953 123.126L254.301 114.517L254.462 119.409Z" fill="#05060F"/>
            <path d="M257.254 121.496L156.963 123.367L257.126 116.924L257.254 121.496ZM261.884 131.581L153.511 126.924L261.95 127.016L261.884 131.581Z" fill="#05060F"/>
            <path d="M268.994 133.8L138.809 126.657L269.102 129.102L268.994 133.8Z" fill="#05060F"/>
            <path d="M261.84 136.289L138.285 127.337L261.994 131.506L261.84 136.289ZM272.395 162.866L145.537 133.709L273 158.141L272.395 162.866Z" fill="#05060F"/>
            <path d="M255.549 162.411L139.794 134.025L256.201 157.743L255.549 162.411ZM226.5 163.164L162.554 141.867L227.333 158.507L226.5 163.164Z" fill="#05060F"/>
            <path d="M246.115 170.631L157.504 140.978L246.989 165.984L246.115 170.631ZM231.799 179.547L165.108 150.272L232.94 175.121L231.799 179.547ZM230.18 187.683L160.745 151.602L231.49 183.203L230.18 187.683ZM237.651 202.676L144.062 146.969L239.144 198.259L237.651 202.676Z" fill="#05060F"/>
            <path d="M230.668 201.451L155.564 155.002L232.222 197.132L230.668 201.451ZM220.729 210.737L156.57 161.673L222.556 206.484L220.729 210.737ZM229 223.159L141.051 152.611L230.917 219.051L229 223.159ZM231.836 234.08L141.706 155.35L233.885 230.04L231.836 234.08ZM228.789 241.402L134.564 151.646L230.959 237.505L228.789 241.402Z" fill="#05060F"/>
            <path d="M169.991 270.93L123.487 149.125L174.325 269.115L169.991 270.93Z" fill="#05060F"/>
            <path d="M157.583 264.086L120.11 146.011L162.083 262.457L157.583 264.086ZM136.811 283.739L116.879 155.108L141.424 282.55L136.811 283.739Z" fill="#05060F"/>
            <path d="M130.99 267.924L114.458 149.891L135.568 266.799L130.99 267.924ZM119.526 241.223L115.609 173.938L124.159 240.27L119.526 241.223Z" fill="#05060F"/>
            <path d="M119.859 262.208L114.562 168.917L124.498 261.298L119.859 262.208ZM106.272 252.215L108.748 179.424L110.806 251.634L106.272 252.215ZM98.1153 253.727L105.896 175.864L102.762 253.283L98.1153 253.727ZM86.9587 266.221L104.017 158.653L91.6145 265.972L86.9587 266.221Z" fill="#05060F"/>
            <path d="M81.5084 259.281L96.8179 172.312L86.0966 259.125L81.5084 259.281ZM69.2012 253.491L90.9949 175.718L73.8275 253.612L69.2012 253.491ZM60.7281 265.777L93.6604 157.946L65.2546 266.035L60.7281 265.777ZM51.6359 272.458L91.3594 159.57L56.1471 272.864L51.6359 272.458ZM43.7063 272.342L92.1529 151.563L48.1295 272.913L43.7063 272.342Z" fill="#05060F"/>
            <path d="M209.765 225.926L146.036 162.878L211.961 221.993L209.765 225.926ZM222.825 266.559L132.842 156.448L225.357 263.036L222.825 266.559ZM214.546 268.416L130.756 157.707L217.198 265.009L214.546 268.416ZM-45.85 91.4259L57.6511 116.024L-45.1007 86.7406L-45.85 91.4259Z" fill="#05060F"/>
            <path d="M-51.218 94.8878L63.0099 118.851L-50.5679 90.0889L-51.218 94.8878ZM-48.1537 113.548L49.6557 121.673L-47.8408 108.744L-48.1537 113.548ZM-56.7304 117.844L60.8062 124.252L-56.5118 113.14L-56.7304 117.844Z" fill="#05060F"/>
            <path d="M-51.3588 121.082L57.1505 124.8L-51.1975 116.19L-51.3588 121.082Z" fill="#05060F"/>
            <path d="M-54.1503 123.169L46.1399 125.041L-54.024 118.598L-54.1503 123.169ZM-58.7811 133.254L49.5922 128.597L-58.8476 128.69L-58.7811 133.254Z" fill="#05060F"/>
            <path d="M-65.8904 135.474L64.2939 128.331L-65.9999 130.776L-65.8904 135.474Z" fill="#05060F"/>
            <path d="M-58.7359 137.963L64.8186 129.011L-58.8911 133.18L-58.7359 137.963Z" fill="#05060F"/>
        </g>
        <path d="M104 121.25H132.659L155 82.9618H126.341L104 121.25ZM75.3413 121.25H104L81.6587 82.9618H53L75.3413 121.25ZM81.6587 82.9618H126.341L104 44.7505L81.6587 82.9618Z" fill="#FF267E"/>
    </g>
    <defs>
        <clipPath id="clip0_3036_59358">
            <rect width="207" height="207" fill="white"/>
        </clipPath>
    </defs>
</svg>
